Coordinates
version=1
nRows=14
nColumns=24
inDegrees=yes

Units are S.I. units (second, meters, Newtons, ...)
Angles are in degrees.

endheader
time	pelvis_tilt	pelvis_list	pelvis_rotation	pelvis_tx	pelvis_ty	pelvis_tz	hip_flexion_r	hip_adduction_r	hip_rotation_r	knee_angle_r	ankle_angle_r	subtalar_angle_r	mtp_angle_r	hip_flexion_l	hip_adduction_l	hip_rotation_l	knee_angle_l	ankle_angle_l	subtalar_angle_l	mtp_angle_l	lumbar_extension	lumbar_bending	lumbar_rotation
      1.15850000	      4.26728518	      7.82972250	     -5.38043886	      0.12443904	      1.01871144	      0.27107536	     11.79545359	     -9.80021611	     -1.92051322	    -65.98691513	      6.03146619	    -19.35062157	      0.10415572	      6.76116711	     10.97208054	     -1.87619520	    -11.67818112	      0.45550287	    -15.90724444	      6.31970188	    -11.36267099	     -9.74649248	      6.21831398
      1.16266667	      4.24227913	      7.70435783	     -5.32010226	      0.12958095	      1.01961140	      0.27081922	     12.26672621	     -9.53956662	     -1.87866475	    -65.44179385	      6.26922757	    -19.38745205	     -0.03824957	      6.29739395	     10.90581081	     -1.66997531	    -11.40080833	      0.57166627	    -16.00086214	      6.24070999	    -11.38887791	     -9.59910801	      5.97385656
      1.16683333	      4.19336029	      7.57308039	     -5.28028554	      0.13471801	      1.02046414	      0.27063074	     12.75614377	     -9.25370972	     -1.80217623	    -64.83471496	      6.53775491	    -19.39962492	     -0.07014470	      5.87312838	     10.81484833	     -1.57386733	    -11.14567547	      0.68734153	    -15.98526753	      6.21909765	    -11.39087668	     -9.44401823	      5.90116438
      1.17100000	      4.13973205	      7.42683847	     -5.20983829	      0.13984582	      1.02130738	      0.27043225	     13.21839076	     -8.95144809	     -1.75284727	    -64.14430591	      6.75197768	    -19.37545727	     -0.10926055	      5.45192178	     10.70872766	     -1.41332940	    -10.89643188	      0.80589282	    -15.98937131	      6.18872276	    -11.39793044	     -9.28941679	      5.76425608
      1.17516667	      4.12196919	      7.30353229	     -5.12978065	      0.14497990	      1.02215292	      0.27020921	     13.62751848	     -8.69166872	     -1.72833743	    -63.40117769	      6.94598421	    -19.35089146	     -0.21627827	      4.97127820	     10.63569104	     -1.19956724	    -10.59678731	      0.89791514	    -16.07219029	      6.09110394	    -11.44228018	     -9.14761778	      5.45953343
      1.17933333	      4.06608014	      7.16675830	     -5.05710182	      0.15010803	      1.02292415	      0.27002509	     14.06393376	     -8.40447900	     -1.68469896	    -62.59616937	      7.12061044	    -19.27994629	     -0.24488903	      4.54941174	     10.53168368	     -1.06996985	    -10.33333569	      1.00983532	    -16.04393424	      6.05860001	    -11.44228652	     -8.99057982	      5.36644190
      1.18350000	      4.04082843	      7.04661132	     -4.96069435	      0.15524880	      1.02369776	      0.26980872	     14.44452806	     -8.15355144	     -1.67961714	    -61.73410834	      7.25559465	    -19.21343564	     -0.29883264	      4.07836425	     10.45360522	     -0.86585216	    -10.03859811	      1.13265664	    -16.06903915	      5.98774527	    -11.47883103	     -8.84920023	      5.12015335
      1.18766667	      4.00431760	      6.91107527	     -4.86601730	      0.16037265	      1.02442382	      0.26962255	     14.81929935	     -7.87810642	     -1.66482556	    -60.81363381	      7.37939003	    -19.14632293	     -0.34882823	      3.62531608	     10.35082830	     -0.69240398	     -9.75339532	      1.23375600	    -16.07067212	      5.90744945	    -11.50675918	     -8.69368420	      4.90390391
      1.19183333	      3.93863891	      6.79462154	     -4.77848397	      0.16551779	      1.02505403	      0.26946038	     15.21835419	     -7.62129517	     -1.63768456	    -59.85501915	      7.49803253	    -19.04426797	     -0.36711169	      3.21046264	     10.25910066	     -0.57221105	     -9.47535760	      1.31763506	    -16.03864350	      5.86909449	    -11.48952188	     -8.55874362	      4.77380015
      1.19600000	      3.87930693	      6.67653298	     -4.67399236	      0.17065679	      1.02566122	      0.26928584	     15.58775669	     -7.37118354	     -1.63291026	    -58.83971002	      7.57069820	    -18.94882467	     -0.38333522	      2.78611844	     10.16624367	     -0.41654259	     -9.19417051	      1.42219675	    -16.01397670	      5.82976498	    -11.48357130	     -8.41751502	      4.59349310
      1.20016667	      3.87005927	      6.57377105	     -4.55828429	      0.17578310	      1.02629019	      0.26909910	     15.88591292	     -7.15454557	     -1.65220521	    -57.77952397	      7.60275397	    -18.88576671	     -0.41082994	      2.29301710	     10.09629909	     -0.20808018	     -8.87865117	      1.53852212	    -16.02980181	      5.74993380	    -11.53875680	     -8.29840696	      4.27200952
      1.20433333	      3.81577782	      6.46876367	     -4.44248234	      0.18092209	      1.02680593	      0.26892169	     16.21861339	     -6.93146420	     -1.66212082	    -56.67922800	      7.62572994	    -18.78219130	     -0.43191397	      1.86014767	     10.01440549	     -0.03691455	     -8.58607668	      1.63138988	    -16.02643317	      5.66868146	    -11.53818221	     -8.17225925	      4.03456172
      1.20850000	      3.72439658	      6.36699000	     -4.33470303	      0.18605984	      1.02721617	      0.26877437	     16.58204029	     -6.70732736	     -1.66041907	    -55.54183046	      7.63763110	    -18.65181712	     -0.43860798	      1.47808571	      9.92662035	      0.08207386	     -8.30864990	      1.71198689	    -15.97991142	      5.63300710	    -11.49186266	     -8.05060897	      3.89952004
      1.21266667	      3.69364023	      6.27173825	     -4.20396220	      0.19118700	      1.02767261	      0.26859987	     16.85490940	     -6.51132365	     -1.69775679	    -54.35701997	      7.58503077	    -18.59341751	     -0.45150423	      1.01661263	      9.85373520	      0.28008243	     -8.00609372	      1.83447092	    -15.98148653	      5.55540710	    -11.52148955	     -7.93715826	      3.57882819
